<svg xmlns="http://www.w3.org/2000/svg" width="256" height="256"><path d="M127.857 192.487c-35.637 0-64.63-28.991-64.63-64.63 0-35.637 28.993-64.63 64.63-64.63 35.639 0 64.63 28.993 64.63 64.63 0 35.639-28.991 64.63-64.63 64.63zm0-141.748a8.43 8.43 0 01-8.43-8.43V9.837a8.43 8.43 0 018.43-8.43 8.43 8.43 0 018.43 8.43v32.472a8.431 8.431 0 01-8.43 8.43zm0 203.568a8.43 8.43 0 01-8.43-8.43v-32.473a8.43 8.43 0 018.43-8.43 8.43 8.43 0 018.43 8.43v32.473a8.43 8.43 0 01-8.43 8.43zm-85.548-118.02H9.837a8.43 8.43 0 01-8.43-8.43 8.43 8.43 0 018.43-8.43h32.472a8.43 8.43 0 018.43 8.43 8.431 8.431 0 01-8.43 8.43zm203.568 0h-32.473a8.43 8.43 0 01-8.43-8.43 8.43 8.43 0 018.43-8.43h32.473a8.43 8.43 0 018.43 8.43 8.43 8.43 0 01-8.43 8.43zm-57.53-60.491a8.429 8.429 0 01-5.96-14.39l22.961-22.96a8.428 8.428 0 0111.92 0 8.429 8.429 0 010 11.922l-22.96 22.96a8.404 8.404 0 01-5.96 2.468zM44.405 219.738a8.395 8.395 0 01-5.96-2.47 8.426 8.426 0 010-11.92l22.96-22.96a8.426 8.426 0 0111.92 0 8.426 8.426 0 010 11.92l-22.96 22.96a8.405 8.405 0 01-5.96 2.47zM67.366 75.796a8.404 8.404 0 01-5.96-2.467l-22.96-22.961a8.432 8.432 0 0111.923-11.923l22.96 22.96a8.429 8.429 0 01-5.963 14.39zm143.942 143.942a8.4 8.4 0 01-5.96-2.47l-22.96-22.96a8.426 8.426 0 010-11.92 8.426 8.426 0 0111.92 0l22.96 22.96a8.426 8.426 0 010 11.92 8.4 8.4 0 01-5.96 2.47z" fill="#f4b12c"/></svg>